<svg id="svg" version="1.1" xmlns="http://www.w3.org/2000/svg" xmlns:xlink="http://www.w3.org/1999/xlink" width="400" height="425.61983471074376" viewBox="0, 0, 400,425.61983471074376"><g id="svgg"><path id="path0" d="M102.667 5.990 C 101.427 6.330,99.298 6.600,97.934 6.590 C 94.880 6.567,90.092 7.114,88.430 7.676 C 86.972 8.168,77.204 9.789,71.947 10.411 C 69.926 10.650,67.881 11.090,67.401 11.390 C 66.921 11.690,65.860 12.040,65.042 12.167 C 60.071 12.941,34.406 22.740,31.742 24.880 C 31.246 25.279,30.595 25.361,30.296 25.062 C 29.997 24.763,29.752 24.974,29.752 25.531 C 29.752 26.088,29.380 26.314,28.926 26.033 C 28.471 25.752,28.099 25.857,28.099 26.266 C 28.099 27.105,19.761 31.881,18.802 31.592 C 18.461 31.489,18.182 31.777,18.182 32.231 C 18.182 32.686,17.624 33.058,16.942 33.058 C 16.260 33.058,15.702 33.430,15.702 33.884 C 15.702 34.339,15.145 34.711,14.463 34.711 C 13.781 34.711,13.223 35.083,13.223 35.537 C 13.223 35.992,12.862 36.364,12.421 36.364 C 11.273 36.364,4.132 41.505,4.132 42.331 C 4.132 42.711,5.231 45.198,6.573 47.858 C 7.916 50.518,8.784 52.924,8.502 53.206 C 8.220 53.488,8.485 53.719,9.091 53.719 C 9.697 53.719,9.950 53.962,9.653 54.259 C 9.356 54.556,9.806 55.951,10.653 57.358 C 11.499 58.766,13.158 61.679,14.338 63.831 C 15.518 65.984,18.117 70.633,20.113 74.162 C 22.109 77.691,24.004 81.415,24.324 82.438 C 24.643 83.461,25.252 84.298,25.676 84.298 C 26.099 84.298,26.353 84.584,26.240 84.933 C 26.126 85.283,26.870 86.469,27.893 87.568 C 28.915 88.668,29.752 90.010,29.752 90.551 C 29.752 91.091,30.306 91.993,30.983 92.554 C 31.659 93.116,32.009 93.905,31.760 94.309 C 31.511 94.712,31.701 95.041,32.183 95.041 C 32.664 95.041,33.058 95.573,33.058 96.222 C 33.058 96.871,33.555 97.900,34.163 98.508 C 34.770 99.115,36.282 101.430,37.522 103.651 C 38.762 105.872,40.683 108.877,41.789 110.328 C 42.896 111.779,43.802 113.365,43.802 113.852 C 43.802 114.340,44.083 114.862,44.426 115.014 C 45.199 115.355,55.372 130.229,55.372 131.019 C 55.372 131.334,56.316 132.758,57.471 134.184 C 58.625 135.610,62.024 140.124,65.024 144.215 C 68.024 148.306,70.978 152.062,71.590 152.561 C 72.201 153.061,72.502 153.669,72.258 153.913 C 72.014 154.157,72.763 155.104,73.923 156.016 C 75.084 156.929,76.033 157.953,76.033 158.292 C 76.033 158.631,76.684 159.442,77.479 160.094 C 78.313 160.777,78.400 161.010,77.686 160.644 C 77.004 160.295,77.748 161.313,79.339 162.907 C 80.930 164.501,82.975 166.809,83.884 168.035 C 87.610 173.062,93.491 179.760,98.967 185.214 C 101.353 187.591,103.306 189.860,103.306 190.257 C 103.306 191.364,131.106 218.249,138.763 224.546 C 140.309 225.819,142.807 228.019,144.314 229.435 C 145.820 230.852,147.251 231.813,147.493 231.570 C 147.736 231.328,147.934 231.538,147.934 232.038 C 147.934 232.538,148.585 233.164,149.380 233.430 C 150.176 233.695,152.314 235.258,154.132 236.903 C 158.500 240.854,170.248 249.795,170.248 249.169 C 170.248 248.594,176.157 252.900,177.053 254.128 C 177.387 254.585,177.666 254.654,177.673 254.283 C 177.685 253.668,182.490 256.646,183.471 257.876 C 183.698 258.161,185.000 258.969,186.364 259.671 C 187.727 260.374,192.934 263.220,197.934 265.996 C 202.934 268.772,207.507 271.050,208.096 271.059 C 208.685 271.067,211.948 272.376,215.346 273.967 C 218.744 275.558,221.888 276.860,222.332 276.860 C 222.777 276.860,223.140 277.169,223.140 277.548 C 223.140 277.927,223.605 278.251,224.174 278.268 C 224.742 278.285,229.855 279.856,235.537 281.759 C 254.090 287.972,270.676 290.909,287.218 290.909 C 298.672 290.909,298.810 291.280,289.050 295.842 C 271.146 304.209,254.424 309.901,243.972 311.184 C 242.287 311.391,239.202 311.912,237.116 312.342 C 233.227 313.144,208.170 313.019,203.719 312.177 C 202.355 311.918,199.424 311.482,197.204 311.206 C 194.984 310.931,192.753 310.446,192.245 310.129 C 191.738 309.811,190.579 309.439,189.669 309.301 C 183.200 308.319,166.818 300.983,159.298 295.699 C 158.048 294.821,157.025 294.343,157.025 294.637 C 157.025 295.304,149.449 289.919,144.352 285.630 C 136.212 278.779,119.254 261.128,116.994 257.155 C 116.568 256.406,115.352 254.861,114.292 253.723 C 113.231 252.584,111.908 250.630,111.352 249.380 C 110.796 248.130,110.059 247.107,109.716 247.107 C 109.372 247.107,109.091 246.581,109.091 245.937 C 109.091 245.293,108.725 244.642,108.278 244.490 C 106.220 243.794,86.297 208.194,87.365 207.125 C 87.648 206.843,87.423 206.612,86.866 206.612 C 86.309 206.612,86.083 206.240,86.364 205.785 C 86.645 205.331,86.526 204.959,86.100 204.959 C 85.674 204.959,84.476 202.634,83.437 199.793 C 82.399 196.952,81.288 194.256,80.970 193.802 C 80.651 193.347,77.707 185.909,74.428 177.273 C 71.148 168.636,67.754 159.711,66.885 157.438 C 66.017 155.165,65.144 152.376,64.946 151.240 C 64.748 150.103,64.512 149.081,64.421 148.967 C 64.330 148.853,64.163 148.388,64.050 147.934 C 63.936 147.479,63.752 146.829,63.642 146.488 C 63.531 146.147,63.485 145.589,63.538 145.248 C 63.592 144.907,63.294 144.628,62.876 144.628 C 62.457 144.628,61.870 143.512,61.570 142.149 C 61.271 140.785,60.537 139.669,59.940 139.669 C 58.580 139.669,57.644 141.923,58.727 142.593 C 59.169 142.866,59.336 143.404,59.098 143.789 C 58.861 144.174,59.098 145.543,59.625 146.831 C 60.153 148.120,60.674 149.593,60.783 150.105 C 60.892 150.617,64.173 161.031,68.075 173.246 C 71.977 185.460,75.336 196.384,75.540 197.521 C 75.743 198.657,75.984 199.680,76.075 199.793 C 76.166 199.907,76.318 200.279,76.414 200.620 C 76.510 200.961,76.820 201.798,77.103 202.479 C 79.081 207.253,81.711 216.034,81.342 216.631 C 81.096 217.030,81.328 217.355,81.858 217.355 C 82.388 217.355,82.621 217.877,82.377 218.514 C 82.132 219.152,82.165 219.906,82.450 220.191 C 82.735 220.476,83.046 221.163,83.142 221.718 C 83.238 222.273,85.966 231.095,89.204 241.322 C 92.442 251.550,95.209 260.475,95.353 261.157 C 95.497 261.839,96.075 263.512,96.637 264.876 C 97.199 266.240,97.744 268.115,97.848 269.043 C 97.952 269.972,98.245 271.087,98.499 271.523 C 99.407 273.080,103.526 286.410,103.824 288.756 C 103.991 290.071,104.443 291.559,104.828 292.061 C 105.213 292.564,106.010 294.835,106.598 297.107 C 107.186 299.380,110.439 310.079,113.826 320.883 C 117.214 331.686,120.081 340.984,120.198 341.544 C 120.316 342.104,120.650 343.120,120.941 343.802 C 122.692 347.904,124.703 354.849,124.320 355.469 C 124.072 355.870,124.208 356.198,124.622 356.198 C 125.397 356.198,128.602 366.546,128.398 368.388 C 128.334 368.957,128.590 369.421,128.966 369.421 C 129.342 369.421,129.615 370.072,129.574 370.868 C 129.384 374.512,138.119 398.961,140.326 400.960 C 145.697 405.827,157.538 412.434,158.929 411.341 C 159.058 411.240,160.180 411.823,161.423 412.638 C 162.666 413.452,164.019 413.911,164.429 413.657 C 164.839 413.404,165.409 413.574,165.694 414.036 C 165.980 414.498,166.911 414.876,167.764 414.876 C 168.616 414.876,170.361 415.298,171.640 415.813 C 172.920 416.329,174.897 416.875,176.033 417.028 C 177.169 417.180,180.888 417.886,184.298 418.596 C 187.707 419.307,191.054 419.904,191.736 419.924 C 192.417 419.944,194.835 420.306,197.107 420.728 C 206.694 422.510,243.689 423.240,256.612 421.902 C 266.302 420.899,267.185 420.780,272.314 419.787 C 275.041 419.259,278.017 418.730,278.926 418.611 C 279.835 418.492,281.136 418.203,281.818 417.969 C 284.203 417.152,289.694 415.776,292.528 415.286 C 294.101 415.014,295.867 414.393,296.454 413.906 C 297.041 413.419,297.521 413.233,297.521 413.493 C 297.521 414.414,303.796 411.346,309.108 407.827 C 314.294 404.392,320.113 398.901,319.363 398.151 C 319.045 397.833,319.859 394.729,321.262 390.909 C 321.512 390.227,321.787 389.112,321.873 388.430 C 322.291 385.096,324.220 378.454,324.890 378.040 C 325.306 377.782,325.466 377.278,325.244 376.920 C 325.023 376.562,325.214 375.007,325.670 373.465 C 327.329 367.854,329.751 358.667,335.020 337.991 C 340.595 316.116,341.205 313.561,341.785 309.646 C 341.976 308.360,342.391 306.888,342.708 306.375 C 343.025 305.862,343.381 304.537,343.499 303.432 C 343.617 302.326,343.976 300.823,344.298 300.091 C 344.619 299.359,344.929 298.388,344.987 297.934 C 345.468 294.181,346.552 290.013,347.143 289.647 C 347.538 289.403,347.667 288.695,347.428 288.074 C 347.190 287.452,347.376 286.709,347.841 286.421 C 348.307 286.133,348.493 285.389,348.255 284.768 C 348.016 284.147,348.202 283.403,348.668 283.115 C 349.134 282.827,349.320 282.083,349.081 281.462 C 348.843 280.841,349.051 280.083,349.544 279.779 C 350.037 279.474,350.226 278.878,349.965 278.455 C 349.703 278.032,349.780 277.221,350.135 276.653 C 350.810 275.572,351.052 274.638,351.637 270.855 C 351.832 269.598,353.525 262.718,355.399 255.566 C 361.348 232.867,361.892 230.697,363.264 224.166 C 364.004 220.647,364.733 217.025,364.884 216.116 C 365.035 215.207,365.394 213.533,365.682 212.397 C 365.969 211.260,366.316 209.587,366.451 208.678 C 367.237 203.412,368.014 199.494,368.402 198.843 C 368.646 198.434,368.961 196.816,369.101 195.247 C 369.242 193.679,369.741 191.934,370.209 191.370 C 370.677 190.805,370.861 190.144,370.617 189.901 C 370.206 189.490,371.463 183.002,372.502 180.165 C 372.752 179.483,373.038 178.368,373.137 177.686 C 373.237 177.004,373.604 174.647,373.954 172.448 L 374.590 168.450 372.635 169.556 C 371.561 170.164,370.191 171.312,369.591 172.107 C 368.992 172.903,368.190 173.554,367.809 173.554 C 367.428 173.554,365.923 174.669,364.463 176.033 C 363.003 177.397,361.290 178.512,360.656 178.512 C 360.023 178.512,359.504 178.884,359.504 179.339 C 359.504 179.793,358.946 180.165,358.264 180.165 C 357.583 180.165,357.025 180.451,357.025 180.801 C 357.025 181.151,354.886 182.596,352.273 184.012 C 339.052 191.179,336.197 192.557,335.485 192.117 C 335.059 191.853,334.711 192.072,334.711 192.602 C 334.711 193.132,334.153 193.351,333.471 193.090 C 332.789 192.828,332.231 192.912,332.231 193.276 C 332.231 194.124,326.397 195.935,325.483 195.370 C 325.104 195.136,324.793 195.290,324.793 195.713 C 324.793 196.351,322.314 197.060,316.942 197.956 C 316.488 198.032,315.483 198.370,314.709 198.707 C 313.935 199.044,312.938 199.095,312.493 198.820 C 312.048 198.545,311.461 198.682,311.187 199.125 C 310.914 199.567,309.679 199.889,308.444 199.840 C 307.209 199.791,304.153 199.979,301.653 200.258 C 296.449 200.838,279.710 200.931,274.793 200.406 C 271.561 200.062,267.373 199.485,262.397 198.699 C 261.033 198.484,258.895 198.323,257.645 198.341 C 256.395 198.359,255.372 197.974,255.372 197.485 C 255.372 196.996,255.058 196.791,254.675 197.028 C 254.022 197.431,249.057 196.397,246.281 195.278 C 245.599 195.004,244.775 194.834,244.450 194.901 C 244.125 194.967,242.823 194.593,241.558 194.068 C 240.292 193.543,239.008 193.083,238.705 193.044 C 238.402 193.006,237.901 192.722,237.591 192.412 C 237.282 192.103,236.507 192.050,235.870 192.294 C 235.232 192.539,234.711 192.339,234.711 191.850 C 234.711 191.361,234.191 191.161,233.555 191.405 C 232.919 191.649,232.153 191.451,231.853 190.965 C 231.553 190.480,230.765 190.083,230.103 190.083 C 228.314 190.083,201.204 178.647,195.661 175.555 C 194.411 174.857,193.388 174.517,193.388 174.798 C 193.388 175.080,191.529 174.298,189.256 173.061 C 186.983 171.824,185.124 170.524,185.124 170.172 C 185.124 169.544,181.712 168.169,181.084 168.544 C 180.908 168.650,180.536 168.426,180.258 168.046 C 179.980 167.666,177.425 166.134,174.580 164.641 C 171.736 163.149,167.741 160.917,165.703 159.683 C 163.665 158.448,158.602 155.398,154.452 152.904 C 150.301 150.411,146.726 147.900,146.505 147.326 C 146.285 146.751,145.679 146.275,145.160 146.268 C 144.640 146.261,143.044 145.238,141.613 143.995 C 140.183 142.752,138.175 141.178,137.152 140.496 C 128.293 134.591,130.448 133.868,141.741 138.956 C 146.738 141.208,156.033 145.283,162.397 148.012 C 168.760 150.741,174.711 153.296,175.620 153.689 C 176.529 154.083,179.225 155.068,181.612 155.878 C 183.998 156.688,185.950 157.650,185.950 158.014 C 185.950 158.379,186.229 158.634,186.570 158.580 C 188.348 158.299,190.099 158.812,191.234 159.947 C 191.932 160.645,192.708 161.175,192.959 161.124 C 194.345 160.844,198.347 162.248,198.347 163.013 C 198.347 163.508,198.592 163.667,198.891 163.368 C 199.190 163.069,199.841 163.141,200.337 163.529 C 201.239 164.233,204.089 165.126,222.727 170.543 C 234.307 173.908,242.355 176.013,245.373 176.465 C 246.554 176.642,248.822 177.014,250.413 177.292 C 252.004 177.571,254.236 177.946,255.372 178.128 C 256.508 178.309,258.554 178.666,259.917 178.921 C 288.660 184.293,326.697 179.254,342.749 167.947 C 344.010 167.059,345.844 166.084,346.824 165.779 C 347.805 165.475,348.825 164.659,349.091 163.966 C 349.357 163.272,349.911 162.913,350.321 163.166 C 350.731 163.419,351.280 163.071,351.540 162.392 C 351.801 161.713,352.381 161.157,352.829 161.157 C 353.277 161.157,354.684 160.200,355.954 159.029 C 361.545 153.881,362.492 153.062,364.106 151.976 C 376.081 143.921,386.885 126.443,388.936 111.809 C 389.911 104.850,390.316 101.535,391.287 92.562 C 392.043 85.576,392.046 53.208,391.291 46.281 C 390.293 37.120,390.066 35.205,389.676 32.645 C 389.469 31.281,389.091 28.678,388.838 26.860 C 386.857 12.660,384.129 11.437,383.308 24.380 C 382.991 29.380,382.519 35.331,382.259 37.603 C 381.999 39.876,381.793 42.614,381.801 43.688 C 381.834 48.226,378.938 56.935,374.093 66.871 C 366.583 82.273,346.309 89.542,326.446 83.955 C 323.492 83.124,320.517 82.372,319.835 82.283 C 318.005 82.045,313.760 80.835,312.810 80.282 C 312.355 80.017,311.256 79.687,310.366 79.548 C 309.477 79.410,308.547 79.028,308.300 78.698 C 308.053 78.369,307.107 77.972,306.198 77.817 C 305.289 77.662,304.428 77.218,304.285 76.830 C 304.142 76.443,303.540 76.312,302.946 76.540 C 302.352 76.768,301.304 76.393,300.618 75.707 C 299.932 75.020,299.142 74.687,298.864 74.965 C 298.585 75.244,297.611 74.797,296.699 73.972 C 295.787 73.146,295.041 72.736,295.041 73.059 C 295.041 73.383,294.019 73.102,292.769 72.436 C 291.519 71.770,288.616 70.468,286.319 69.543 C 279.865 66.945,259.125 56.742,258.814 56.012 C 258.661 55.654,258.196 55.572,257.781 55.829 C 257.365 56.086,257.025 55.880,257.025 55.372 C 257.025 54.864,256.715 54.639,256.337 54.873 C 255.959 55.106,253.263 53.858,250.346 52.099 C 247.428 50.339,242.996 47.918,240.496 46.718 C 237.996 45.518,232.045 42.373,227.273 39.729 C 222.500 37.085,217.200 34.428,215.496 33.824 C 213.791 33.220,212.397 32.367,212.397 31.928 C 212.397 31.489,212.165 31.361,211.881 31.645 C 211.396 32.131,205.025 29.294,204.132 28.195 C 203.477 27.388,198.347 24.655,198.347 25.113 C 198.347 25.340,195.465 24.212,191.942 22.606 C 185.174 19.521,166.246 12.815,162.270 12.094 C 159.420 11.578,157.445 11.087,153.988 10.038 C 152.545 9.600,151.166 9.440,150.924 9.682 C 150.682 9.924,149.818 9.831,149.003 9.475 C 148.188 9.119,147.276 8.876,146.977 8.934 C 146.677 8.993,143.330 8.492,139.539 7.821 C 128.247 5.824,107.102 4.774,102.667 5.990 " stroke="none" fill="#000000" fill-rule="evenodd"></path></g></svg>